<svg width="25" height="25" viewBox="0 0 25 25" fill="none" xmlns="http://www.w3.org/2000/svg">
<g clip-path="url(#clip0_512_2722)">
<path d="M21.6313 3.62394e-07H3.36885C2.92633 -0.000204889 2.4881 0.086779 2.0792 0.255983C1.67031 0.425186 1.29875 0.673294 0.985772 0.986132C0.672789 1.29897 0.424509 1.67041 0.255115 2.07922C0.0857222 2.48804 -0.00146489 2.92623 -0.00146484 3.36875L-0.00146484 21.6313C-0.00146489 22.0738 0.0857222 22.512 0.255115 22.9208C0.424509 23.3296 0.672789 23.701 0.985772 24.0139C1.29875 24.3267 1.67031 24.5748 2.0792 24.744C2.4881 24.9132 2.92633 25.0002 3.36885 25H12.3759L12.3915 16.0664H10.0704C9.92537 16.0664 9.78627 16.0088 9.68371 15.9062C9.58115 15.8037 9.52354 15.6646 9.52354 15.5195L9.5126 12.6398C9.5126 12.4948 9.57021 12.3557 9.67277 12.2531C9.77533 12.1506 9.91443 12.093 10.0595 12.093H12.3759V9.30859C12.3759 6.07969 14.3478 4.32109 17.2282 4.32109H19.5923C19.7373 4.32109 19.8764 4.37871 19.979 4.48127C20.0815 4.58383 20.1392 4.72293 20.1392 4.86797V7.29766C20.1392 7.4427 20.0815 7.5818 19.979 7.68436C19.8764 7.78691 19.7373 7.84453 19.5923 7.84453H18.1415C16.5751 7.84453 16.272 8.58906 16.272 9.68125V12.0898H19.7142C19.7918 12.0893 19.8688 12.1053 19.9398 12.1368C20.0108 12.1683 20.0743 12.2145 20.126 12.2725C20.1778 12.3304 20.2166 12.3987 20.2399 12.4729C20.2631 12.547 20.2704 12.6252 20.261 12.7023L19.9204 15.5828C19.9046 15.7165 19.8401 15.8396 19.7392 15.9287C19.6383 16.0178 19.5081 16.0666 19.3735 16.0656H16.2876L16.272 25H21.6313C22.5245 24.9996 23.381 24.6445 24.0124 24.0128C24.6438 23.381 24.9985 22.5244 24.9985 21.6313V3.36875C24.9985 2.47557 24.6438 1.61896 24.0124 0.987237C23.381 0.355518 22.5245 0.000414638 21.6313 3.62394e-07Z" fill="#5C758E"/>
</g>
<defs>
<clipPath id="clip0_512_2722">
<rect width="25" height="25" fill="white"/>
</clipPath>
</defs>
</svg>
