<svg width="25" height="25" viewBox="0 0 25 25" fill="none" xmlns="http://www.w3.org/2000/svg">
<g clip-path="url(#clip0_512_2725)">
<path d="M2.97619 0C1.33957 0 0 1.33957 0 2.97619V22.0238C0 23.6604 1.33957 25 2.97619 25H22.0238C23.6604 25 25 23.6604 25 22.0238V2.97619C25 1.33957 23.6604 0 22.0238 0H2.97619ZM2.97619 1.19048H6.8929C4.76726 3.40219 3.57143 6.26076 3.57143 9.22619C3.57143 12.2976 4.82747 15.238 7.08938 17.4642C7.16081 17.5892 7.22019 18.2021 6.94638 18.9104C6.77376 19.3569 6.42839 19.94 5.76172 20.1602C5.50577 20.2435 5.33929 20.4946 5.35714 20.7624C5.375 21.0303 5.57189 21.2564 5.8338 21.31C7.54213 21.6493 8.64839 21.137 9.54125 20.7322C10.3448 20.3631 10.8754 20.1129 11.6908 20.4462C13.3575 21.095 15.131 21.4286 16.9643 21.4286C19.401 21.4286 21.7449 20.8338 23.8095 19.7103V22.0238C23.8095 23.017 23.017 23.8095 22.0238 23.8095H2.97619C1.98305 23.8095 1.19048 23.017 1.19048 22.0238V2.97619C1.19048 1.98305 1.98305 1.19048 2.97619 1.19048ZM17.2619 6.54762C17.5893 6.54762 17.8571 6.81548 17.8571 7.14286V12.5C17.8571 12.8274 17.5893 13.0952 17.2619 13.0952C16.9345 13.0952 16.6667 12.8274 16.6667 12.5V7.14286C16.6667 6.81548 16.9345 6.54762 17.2619 6.54762ZM8.33333 7.14286H11.3095C11.5238 7.14286 11.7267 7.26163 11.8338 7.4521C11.935 7.63663 11.9283 7.86863 11.8152 8.05315L9.40523 11.9048H11.3095C11.6369 11.9048 11.9048 12.1726 11.9048 12.5C11.9048 12.8274 11.6369 13.0952 11.3095 13.0952H8.33333C8.11905 13.0952 7.91615 12.9765 7.80901 12.786C7.70782 12.6015 7.71452 12.3695 7.82761 12.1849L10.2376 8.33333H8.33333C8.00595 8.33333 7.7381 8.06548 7.7381 7.7381C7.7381 7.41071 8.00595 7.14286 8.33333 7.14286ZM13.9881 8.92857C14.3512 8.92857 14.6902 9.0293 14.9937 9.19596C15.1009 9.0412 15.2679 8.92857 15.4762 8.92857C15.8036 8.92857 16.0714 9.19643 16.0714 9.52381V12.5C16.0714 12.8274 15.8036 13.0952 15.4762 13.0952C15.2679 13.0952 15.1009 12.9826 14.9937 12.8278C14.6902 12.9945 14.3512 13.0952 13.9881 13.0952C12.8393 13.0952 11.9048 12.1607 11.9048 11.0119C11.9048 9.8631 12.8393 8.92857 13.9881 8.92857ZM20.5357 8.92857C21.6845 8.92857 22.619 9.8631 22.619 11.0119C22.619 12.1607 21.6845 13.0952 20.5357 13.0952C19.3869 13.0952 18.4524 12.1607 18.4524 11.0119C18.4524 9.8631 19.3869 8.92857 20.5357 8.92857ZM13.9881 10.119C13.9263 10.119 13.8661 10.1258 13.8079 10.1376C13.6915 10.1614 13.5832 10.2072 13.4882 10.2713C13.3932 10.3354 13.3116 10.417 13.2475 10.512C13.1834 10.607 13.1376 10.7153 13.1138 10.8317C13.102 10.8899 13.0952 10.9501 13.0952 11.0119C13.0952 11.0737 13.102 11.1339 13.1138 11.1921C13.1257 11.2503 13.1424 11.3061 13.165 11.3595C13.1875 11.4129 13.2155 11.4643 13.2475 11.5118C13.2796 11.5593 13.3165 11.6028 13.3568 11.6432C13.3972 11.6835 13.4407 11.7204 13.4882 11.7525C13.5832 11.8166 13.6915 11.8624 13.8079 11.8862C13.8661 11.898 13.9263 11.9048 13.9881 11.9048C14.0499 11.9048 14.1101 11.898 14.1683 11.8862C14.5756 11.8031 14.881 11.4442 14.881 11.0119C14.881 10.5179 14.4821 10.119 13.9881 10.119ZM20.5357 10.119C20.474 10.119 20.4137 10.1258 20.3555 10.1376C20.2973 10.1495 20.2415 10.1662 20.1881 10.1888C20.1347 10.2114 20.0833 10.2393 20.0358 10.2713C19.9883 10.3034 19.9448 10.3403 19.9044 10.3806C19.8237 10.4614 19.7577 10.5574 19.7126 10.6643C19.6901 10.7177 19.6733 10.7735 19.6615 10.8317C19.6496 10.8899 19.6429 10.9501 19.6429 11.0119C19.6429 11.0737 19.6496 11.1339 19.6615 11.1921C19.6733 11.2503 19.6901 11.3061 19.7126 11.3595C19.7352 11.4129 19.7631 11.4643 19.7952 11.5118C19.8272 11.5593 19.8641 11.6028 19.9044 11.6432C19.9448 11.6835 19.9883 11.7204 20.0358 11.7525C20.0833 11.7845 20.1347 11.8125 20.1881 11.835C20.2415 11.8576 20.2973 11.8743 20.3555 11.8862C20.4137 11.898 20.474 11.9048 20.5357 11.9048C20.5975 11.9048 20.6577 11.898 20.7159 11.8862C21.1232 11.8031 21.4286 11.4442 21.4286 11.0119C21.4286 10.5179 21.0298 10.119 20.5357 10.119Z" fill="#5C758E"/>
</g>
<defs>
<clipPath id="clip0_512_2725">
<rect width="25" height="25" fill="white"/>
</clipPath>
</defs>
</svg>
